<svg width="149" height="134" viewBox="0 0 149 134" fill="none" xmlns="http://www.w3.org/2000/svg">
<path d="M34 1H13V2.5C21.1756 2.17045 23.3706 6.88815 25 20H26.5V10L79.5 123.5H81L124.5 6V108.5C124.5 127 120.697 131.946 112.5 132V133.5H148V132C141.5 131 137.406 132.198 136 108.5V26C137 9 139.108 2.31672 148 2.5V1H125L85 107.5L34 1Z" fill="black" stroke="black" stroke-width="0.5"/>
<path d="M27.5 102.5H25C24.6958 122.431 23.9263 132.456 13 132V133.5H48.5V132C39.1253 131.456 31.6993 128.439 27.5 102.5Z" fill="black" stroke="black" stroke-width="0.5"/>
<path d="M44.48 87.4557C44.54 87.6357 43.94 87.5157 43.34 87.2157L41.66 86.3757L39.8 85.2357C39.62 85.1157 39.44 85.0557 39.44 85.0557C39.44 85.1157 39.38 85.0557 39.26 84.9357C39.08 84.7557 38.06 84.0357 36.44 82.9557L35.06 81.9957L33.38 80.7957L32.3 79.9557L31.34 79.1757L30.56 78.5757C30.44 78.3957 29.12 77.3157 29 77.3157C28.94 77.3157 28.88 77.3157 28.88 77.2557C28.88 77.1957 28.64 77.0157 28.4 76.8357L27.86 76.3557L26.84 75.5757L24.74 73.7157L23.9 73.0557L23.18 72.2757L22.4 71.6157C21.8 71.1357 20.96 70.3557 20.66 69.9957C20.3 69.5757 19.16 68.4957 19.04 68.4357L17.24 66.6357L16.76 66.2157L17.36 67.4157C17.48 67.6557 17.66 67.8957 17.78 68.0157C17.9 68.0757 17.96 68.1957 17.96 68.2557C17.96 68.3757 18.68 69.6357 18.98 69.9957L19.22 70.3557C19.34 70.5357 19.82 71.3157 20.06 71.6157L20.3 72.0957C20.36 72.2157 20.6 72.5157 20.78 72.7557C20.96 72.9957 21.08 73.1757 21.08 73.2357C21.08 73.2957 21.2 73.4157 21.32 73.5357C21.44 73.5957 21.56 73.7157 21.56 73.7757L22.4 75.2757L23.9 77.6757C24.08 77.9757 24.2 78.2757 24.2 78.3357C24.2 78.3957 24.26 78.5157 24.38 78.5757C24.62 78.8157 25.4 80.1357 25.76 81.0357C26.54 82.7757 26.66 84.3957 25.94 84.3957C25.7 84.3957 24.26 83.6157 23.54 83.0757L22.94 82.6557C22.88 82.6557 21.14 81.5157 20.96 81.3357L20.36 80.9157C20 80.6757 19.22 80.0157 18.62 79.5357L16.82 77.8557C16.4 77.4357 15.98 77.1357 15.92 77.1957C15.86 77.2557 15.86 77.1957 15.92 77.1357C15.92 77.0757 15.62 76.7757 15.26 76.4757C14.06 75.3957 13.76 75.0957 12.5 73.7157C11.84 72.9957 11.24 72.3957 11.24 72.4557C11.18 72.5157 9.98 71.1957 9.98 71.0757C9.98 70.8957 8.54 69.3957 7.7 68.6157C6.8 67.8357 6.26 67.2957 5.24 66.3357C5 66.0957 4.64 65.7357 4.34 65.5557C4.1 65.3757 3.68 64.9557 3.38 64.5957L1.1 62.4357C0.679996 62.0757 0.559998 61.8357 0.559998 61.6557C0.559998 60.9357 1.04 60.9357 1.82 61.5957L2.36 62.1357L2.9 62.6157C3.38 63.0357 3.68 63.3357 4.1 63.7557L6.08 65.6157L7.46 66.8757L7.94 67.2957L8.54 67.8957C9.02 68.2557 9.62 68.9157 10.82 70.4757L11.48 71.1357L13.1 72.9357C13.76 73.6557 14.3 74.2557 14.36 74.2557C14.36 74.2557 14.54 74.3757 14.66 74.4957C15.2 75.0357 15.68 75.4557 16.22 75.9357L17 76.5957L18.44 78.0357C18.98 78.5157 20.12 79.5357 20.78 80.0157L21.62 80.6757L22.52 81.2157C22.94 81.4557 23.48 81.8757 23.78 82.0557L24.44 82.5357L24.98 82.8957C25.22 83.0157 25.46 83.1957 25.58 83.1957C25.76 83.3157 25.76 83.2557 25.7 82.7757C25.64 82.0557 24.74 79.8957 24.32 79.5957C24.26 79.5357 24.2 79.4157 24.2 79.3557C24.2 79.2957 23.9 78.7557 23.6 78.2157L22.94 77.0757L22.82 76.8957C22.58 76.5957 22.4 76.2957 22.46 76.2957L22.28 75.9357L22.04 75.5757C22.04 75.4557 20.9 73.6557 20.66 73.3557L20.12 72.5757C20 72.2757 19.64 71.7957 19.4 71.4957L18.98 70.8357C18.98 70.7757 18.86 70.5357 18.62 70.2957C18.44 70.0557 18.08 69.5157 17.84 69.0957L15.98 65.8557L15.5 64.9557C15.32 64.4757 11.96 60.3957 11.78 60.3957C11.72 60.3957 11.66 60.3357 11.6 60.2157C11.6 60.1557 11.3 59.7957 11 59.4357C10.4 58.8357 10.28 58.4757 10.46 58.2357C10.64 57.9357 10.88 58.0557 11.66 58.9557L12.98 60.3957C13.64 61.1157 14.9 62.6157 15.2 63.0957C15.56 63.5757 16.46 64.5357 17.18 65.1957C17.54 65.4957 17.78 65.7957 17.78 65.8557L18.02 66.0957C18.2 66.1557 18.56 66.5157 18.92 66.8757L19.88 67.8957C20.24 68.1957 20.84 68.7357 22.4 70.3557L25.04 72.8757L25.34 73.1157L32.12 78.8157L32.72 79.3557L34.34 80.5557L35.18 81.2157L35.36 81.3357C35.42 81.3357 36.26 81.9357 36.32 82.0557C36.38 82.1157 38.48 83.6757 39.38 84.2757L40.52 85.0557L42.08 86.0757L43.28 86.7357C43.94 87.0957 44.42 87.3957 44.48 87.4557ZM45.38 121.116L45.2 121.596L44.48 121.536C43.7 121.476 43.22 121.176 43.04 120.696C42.98 120.456 42.98 120.276 43.1 120.156C43.22 119.916 43.4 119.916 44.06 120.096C44.36 120.216 44.36 120.216 44.3 119.196C44.3 118.596 44.18 117.996 44 117.576L43.46 116.076C43.22 115.416 43.1 115.116 42.44 113.496L41.84 112.176L41.3 111.216C41.24 110.976 40.82 110.256 40.4 109.596L39.62 108.336C39.62 108.276 39.38 107.856 39.08 107.436C38.78 107.016 38.6 106.656 38.6 106.596C38.66 106.536 38.48 106.416 38.24 106.236C38.06 106.056 37.76 105.816 37.7 105.696L37.22 105.156C37.1 105.036 36.92 104.736 36.92 104.616C36.86 104.436 36.68 104.196 36.44 104.016C36.26 103.836 36.14 103.656 36.14 103.596C36.14 103.476 36.02 103.296 35.84 103.176L34.94 102.216C34.58 101.796 34.22 101.496 34.16 101.496C34.1 101.496 34.04 101.316 33.92 101.076C33.86 100.896 33.38 100.296 32.9 99.7557C31.88 98.6157 31.46 98.1357 30.08 96.3957L28.7 94.8357C28.58 94.7157 28.46 94.5957 28.46 94.5357C28.46 94.5357 28.4 94.3557 28.22 94.1757L27.26 92.9757L24.68 89.7957C24.5 89.6157 24.38 89.4357 24.38 89.3757C24.38 89.3157 24.2 89.0757 23.96 88.8957C23.78 88.6557 23.36 88.2357 23.12 87.8757L22.04 86.6157C21.02 85.4757 19.64 84.0357 19.64 83.9757C19.64 83.9157 17.9 82.0557 15.08 79.0557C14.06 78.0357 13.22 77.0757 13.22 77.0757C13.22 77.0157 13.1 76.8357 12.92 76.7157C12.74 76.5957 12.44 76.2957 12.26 76.1157L11.42 75.2157C11.18 74.9757 10.94 74.6757 11 74.6157C11 74.5557 10.94 74.4957 10.82 74.4357C10.58 74.3157 8.54 72.1557 7.64 71.0757C7.34 70.7157 7.04 70.4157 6.98 70.3557C6.74 70.2357 6.74 69.9357 6.92 69.8157C7.1 69.7557 7.88 70.5357 8.84 71.7357L9.86 72.9357C10.88 74.0757 11.3 74.5557 11.3 74.6757C11.3 74.7357 11.42 74.8557 11.6 74.9157C11.78 74.9757 11.9 75.0957 11.9 75.2757C11.9 75.4557 11.96 75.5157 12.08 75.4557C12.2 75.4557 12.32 75.5157 12.38 75.6357C12.56 75.9357 13.1 76.5357 13.22 76.5357C13.28 76.5357 13.28 76.5957 13.28 76.6557C13.22 76.7757 13.46 77.0157 13.82 77.2557C14.18 77.4957 14.84 78.0957 15.26 78.5757L18.5 82.0557L19.1 82.6557C19.7 83.1957 20.72 84.3957 20.78 84.6357C20.84 84.8157 21.02 84.9357 21.14 84.9957C21.32 85.0557 21.5 85.1757 21.62 85.2957L24.44 88.6557C24.56 88.7757 24.56 88.8957 24.56 88.9557C24.5 89.0757 24.92 89.5557 25.04 89.5557C25.22 89.5557 25.7 90.0957 26.12 90.6357C26.66 91.4157 27.92 92.9157 28.76 93.8757L33.62 99.6357C33.98 99.9957 34.4 100.536 34.64 100.836L35.18 101.556L36.14 102.636L37.58 104.376L38.66 105.756C39.26 106.416 39.2 106.356 39.92 107.496L40.76 108.756C41.3 109.356 44.24 115.296 44.42 116.076C44.42 116.316 44.6 116.736 44.72 116.976C45.44 118.656 45.74 120.396 45.38 121.116ZM23.36 64.021C23.48 64.261 23.12 64.621 23 64.441C22.94 64.381 22.82 64.321 22.64 64.321C22.28 64.261 22.16 64.021 22.34 63.781C22.4 63.721 22.52 63.601 22.64 63.601C22.88 63.541 23.3 63.781 23.36 64.021ZM27.68 67.441C27.74 68.041 27.56 68.341 27.2 68.341H27.02C26.42 68.341 25.82 67.861 24.92 66.781C24.62 66.361 24.44 65.881 24.5 65.761C24.62 65.461 24.92 65.641 25.52 66.361L26.36 67.381C26.6 67.561 26.84 67.621 27.08 67.621C27.2 67.381 27.02 66.901 27.02 66.901C26.84 66.061 26.12 64.261 24.98 61.621L24.92 61.501V61.381L24.98 61.261C25.04 61.141 25.22 61.141 25.34 61.321L25.64 62.041L26.84 64.681C27.26 65.641 27.62 66.781 27.68 67.441ZM27.56 63.122C27.44 63.302 26.96 63.362 26.6 63.182C25.64 62.702 23.84 60.242 23.72 59.162C23.66 58.922 23.9 58.562 24.08 58.562C24.32 58.502 25.34 59.342 25.4 59.582C25.4 59.642 25.4 59.762 25.34 59.762L25.16 59.822C25.1 59.882 24.92 59.762 24.68 59.582L24.38 59.282V59.522C24.5 60.302 26.6 62.822 27.14 62.762C27.44 62.762 27.02 61.322 26.3 59.582C25.58 57.962 25.28 57.422 25.04 56.762V56.582C25.04 56.522 25.16 56.462 25.22 56.462L25.4 56.582V56.642L25.46 56.702L26.54 59.162C26.84 59.822 27.32 60.962 27.5 61.682C27.74 62.462 27.74 62.822 27.56 63.122ZM27.86 58.4959C27.8 58.6159 27.68 58.8559 27.5 58.8559C27.26 58.8559 27.02 58.6159 26.84 58.4359L26.24 57.8959L25.58 57.3559L25.34 57.1159L23.12 55.0159C22.58 54.4159 22.1 53.9959 22.1 53.9959C22.04 54.0559 22.16 54.4759 22.22 54.4759C22.28 54.5959 22.28 54.7159 22.34 54.7759L22.7 55.8559C22.76 56.0959 22.82 56.3359 22.94 56.5159L23.24 57.1159C23.3 57.3559 23.36 57.5959 23.36 57.7159C23.36 57.9559 23.24 58.0159 23 57.8959C22.94 57.8359 22.82 57.5959 22.76 57.4159L22.1 55.5559L21.86 54.9559C21.8 54.8959 21.74 54.7759 21.68 54.5959C21.56 54.3559 21.5 54.1759 21.5 54.1159C21.5 54.0559 21.44 53.9959 21.44 53.9959C21.38 53.9959 21.32 53.7559 21.2 53.4559L21.02 52.9159C20.9 52.7359 20.54 52.3759 20.24 52.0759L18.44 50.0359L17.36 48.7759L15.86 46.8559C15.8 46.7959 15.2 45.9559 14.72 45.2359L14.06 44.2159L13.7 43.6759L13.34 43.0159C12.62 41.7559 11.9 40.0759 11.54 38.8159L11.42 38.3359C11.3 38.0959 11.12 37.4959 11.06 37.1359L10.94 36.4759C10.82 35.8759 10.82 35.2759 11 35.1559C11.24 34.9759 11.66 34.9759 12.08 35.2759C12.5 35.5159 13.28 36.2959 13.46 36.5959L14.12 37.4959C14.42 37.8559 14.78 38.4559 15.02 38.7559L15.56 39.6559C15.68 39.8359 15.8 40.0759 15.8 40.1959C15.86 40.3159 15.92 40.4359 15.98 40.4959C16.04 40.4959 16.16 40.6159 16.22 40.7959L16.34 41.1559C16.76 41.8159 18.02 44.5759 18.62 45.8359C18.74 46.0759 18.86 46.3759 18.86 46.4959C18.86 46.5559 19.04 47.0359 19.28 47.5159L19.7 48.5359C19.76 48.6559 19.94 49.1359 20.3 49.9159L21.32 52.1959L21.5 52.4959L22.52 53.5159C23.66 54.6559 25.28 56.2759 25.58 56.4559H25.7C25.76 56.3959 25.7 56.2759 25.64 56.1559C25.34 55.6759 25.16 55.0759 24.8 54.0559C24.56 53.2759 24.56 53.0359 24.74 52.9159C24.86 52.8559 24.92 52.9159 25.22 53.1559C25.76 53.6959 26.18 54.0559 26.42 54.1759L26.6 54.2359C26.96 54.4159 27.2 54.4759 27.2 54.4159V54.2959L27.14 54.0559C26.9 53.4559 26 51.3559 25.64 50.5759L24.98 49.0759C24.98 48.8359 24.98 48.4159 25.34 48.9559C25.76 50.0959 25.34 49.0159 25.94 50.2759C26.06 50.5759 26.3 50.8159 26.3 50.9359C26.66 51.7759 26.72 51.6559 26.84 52.0159C26.96 52.2559 27.68 53.8759 27.74 54.3559L27.8 54.4759C27.86 54.6559 27.8 54.7759 27.68 54.9559C27.44 55.2559 27.2 55.2559 26.66 55.0159L26.3 54.8359C25.94 54.6559 25.4 54.2359 25.4 54.1759C25.4 54.1159 25.4 54.1159 25.34 54.1159C25.28 54.1159 25.34 54.2359 25.4 54.4159L25.64 55.0759C25.7 55.3159 25.82 55.6159 25.94 55.7359C26.06 55.9159 26.12 56.0959 26.18 56.1559L26.36 56.5159L27.08 57.2359L27.14 57.3559L27.26 57.5359L27.44 57.7159L27.68 58.0159L27.8 58.1959C27.86 58.2559 27.92 58.3159 27.86 58.4959ZM20.18 51.1759C20.24 51.1759 20.18 50.9959 20 50.5759C19.82 50.2159 19.64 49.9159 19.64 49.8559C19.64 49.7959 19.52 49.4959 19.4 49.2559C19.28 48.9559 19.16 48.7159 19.16 48.6559C19.16 48.5959 19.04 48.2959 18.92 47.9959L18.38 46.6759L17.84 45.4759L17.54 44.6359C17.48 44.4559 17.3 44.0359 17.06 43.6759L16.52 42.5359L16.16 41.8759L15.8 41.1559L14.66 39.1159C14.18 38.3359 13.58 37.4359 13.22 37.0759L12.74 36.4759C12.74 36.4159 12.5 36.2359 12.32 36.1159L11.9 35.7559C11.9 35.7559 11.78 35.6959 11.72 35.6959C11.6 35.7559 11.54 35.8159 11.48 35.9359C11.42 36.1159 11.54 37.1359 11.6 37.3159L11.9 38.2759C12.2 39.3559 12.8 40.9159 13.34 42.0559C14.12 43.5559 15.38 45.4759 16.1 46.3759L16.46 46.8559C16.46 46.9759 18.32 49.1959 19.4 50.3959L20 51.1159C20 51.1759 20.12 51.1759 20.18 51.1759ZM30.38 45.3587C30.5 45.5987 30.26 45.8387 29.84 45.9587C29.42 46.0787 29.24 46.0187 28.88 45.7187L27.8 44.8187L26.48 43.7987C25.58 43.0187 24.44 42.1787 24.5 42.3587C24.56 42.4187 24.62 42.5387 24.68 42.5387C24.74 42.5987 25.28 43.7387 25.4 43.8587L26 45.1787C26.12 45.3587 27.62 48.7187 27.56 48.8387C27.56 48.8987 27.56 49.1387 27.62 49.3187C27.8 49.7387 27.74 50.6387 27.56 50.7587C27.38 50.9387 26.78 50.9987 26.3 50.8787C25.82 50.7587 24.74 50.1587 24.74 50.0387C24.74 49.9787 24.56 49.7387 24.32 49.4987C24.08 49.3187 23.66 48.8387 23.42 48.5387L22.94 47.8787C22.94 47.8187 22.82 47.5187 22.64 47.1587L22.28 46.3787C22.16 46.1387 22.22 45.6587 22.46 45.4787C22.64 45.2987 23.18 45.2987 23.42 45.4787C23.66 45.7187 24.26 46.4987 24.26 46.6187C24.26 46.6787 24.32 46.7987 24.38 46.8587C24.62 47.1587 25.16 48.4187 25.16 48.7787C25.22 49.4387 25.34 49.6787 25.76 49.8587C25.94 49.9787 26.3 50.0987 26.54 50.0987C26.96 50.1587 27.02 50.1587 27.02 49.9187C27.08 49.6787 27.02 49.1987 26.9 48.6587C26.72 47.7587 24.86 43.9787 24.62 43.5587C24.56 43.3787 23.96 42.2987 23.84 42.0587C23.66 41.8787 22.88 40.7387 22.28 40.1387L21.2 39.1787C20.96 38.8787 19.64 37.4987 19.04 36.8387C17.66 35.2187 16.4 33.6587 15.26 32.0987C14.84 31.5587 14.48 30.8387 14.12 30.2987C13.76 29.8187 13.22 28.9187 13.04 28.2587C12.8 27.5387 13.04 27.2387 13.52 27.3587C14.06 27.4787 15.92 29.5787 16.58 30.4787C17 31.0187 17.18 31.1987 17.78 31.9787L18.38 32.7587C18.44 32.8787 18.62 33.1187 18.86 33.4187L19.28 34.0187C19.4 34.1987 20.12 35.3387 20.42 35.6987C20.72 36.1187 21.08 36.7187 21.08 36.7787L21.44 37.3187C21.8 37.7987 21.86 37.9187 22.16 38.3987C22.22 38.5787 22.34 38.7587 22.4 38.8187L22.88 39.4787C23 39.7787 23.3 40.1387 23.48 40.2587C23.66 40.4387 23.84 40.5587 23.9 40.6187L24.44 41.0987L25.28 41.7587L26.06 42.4187L27.26 43.3787L28.04 44.0387L28.7 44.5787C29 44.8787 29.42 45.0587 29.66 45.1187C30.26 45.1787 30.32 45.2387 30.38 45.3587ZM21.5 38.2787C21.44 38.1587 20.9 37.3187 20.84 37.1387L20.66 36.8987C20.54 36.6587 19.94 35.6987 19.64 35.2787C19.34 34.7987 18.56 33.5987 17.3 32.0387L16.28 30.7787L15.32 29.6387L14.54 28.7987C14 28.3187 13.88 28.2587 13.88 28.3187C13.76 28.3787 13.7 28.3787 13.7 28.4987C13.7 28.5587 13.76 28.6187 13.82 28.6187V28.7387C13.82 28.7987 14.66 30.2387 14.96 30.5987L15.38 31.0787L15.98 31.9787L17.48 33.8387C17.6 34.0187 17.72 34.1387 17.72 34.1387C17.72 34.2587 20.36 37.3187 20.96 37.8587C21.5 38.3387 21.56 38.3987 21.5 38.2787ZM24.56 48.8387C24.56 48.8387 24.56 48.6587 24.44 48.4187C24.2 47.6987 23.36 46.1987 23.18 46.1987C23.18 46.1987 23.12 46.3187 23.12 46.4987C23.12 46.7987 23.18 47.0387 23.54 47.5787C23.96 48.2387 24.44 48.8387 24.56 48.8387ZM36.62 44.7512C36.56 45.2912 35.18 45.3512 34.04 44.8712C33.44 44.6912 32.42 44.1512 31.82 43.7312C30.74 43.0712 28.64 41.3912 27.62 40.3712L27.08 39.8912C26.9 39.6512 26.72 39.6512 26.72 39.8312C26.78 40.0112 26.54 40.3112 26.36 40.2512C26.3 40.2512 26.24 40.0712 26.24 39.8312C26.18 39.3512 26 38.8112 25.76 38.5712L24.8 37.6712C24.08 37.0712 22.76 35.6912 21.74 34.6112C21.2 34.0112 19.46 31.7312 18.26 30.1112C18.2 30.0512 17.18 28.3112 17.12 28.0712C16.88 27.4712 16.7 27.1112 16.94 26.7512C17.12 26.4512 17.24 26.3912 17.6 26.3912C18.38 26.5712 19.52 27.7712 22.16 31.0712C22.34 31.3112 23.18 32.3912 23.48 32.8712C24.38 34.3112 25.82 36.9512 25.82 37.2512C25.82 37.4312 26.42 38.2112 27.2 38.8712L27.98 39.5912C28.22 39.8312 28.88 40.4312 28.94 40.4312L29.42 40.7912C29.6 41.0312 29.84 41.1512 29.84 41.1512C29.9 41.1512 29.96 41.2112 30.02 41.2712C30.08 41.3912 30.74 41.8712 30.98 42.0512L31.22 42.2312C31.34 42.3512 32.36 43.0712 33.14 43.4912C34.64 44.3312 35.72 44.6912 36.14 44.4512C36.44 44.3312 36.62 44.4512 36.62 44.7512ZM25.22 37.0112C25.22 36.8312 24.62 35.6312 24.02 34.6112L23.66 33.9512C23.66 33.8912 22.7 32.3912 22.04 31.4912C20.36 29.2112 17.84 26.6312 17.54 26.9312C17.3 27.1112 17.36 27.3512 17.66 27.9512C18.2 29.1512 19.1 30.1712 20.06 31.4912C20.9 32.6312 21.56 33.3512 21.68 33.5312L22.64 34.4312C23.72 35.6312 25.22 37.1312 25.22 37.0112ZM27.62 31.809C27.74 32.769 27.74 32.889 27.32 32.949C27.08 33.069 26.9 33.009 26.42 32.709C25.46 32.109 24.38 30.729 23.96 29.529C23.6 28.569 23.54 28.029 23.9 27.909C24.08 27.849 24.44 28.269 25.1 29.229C25.82 30.249 26.12 30.849 26.3 31.509C26.42 31.929 26.48 32.049 26.72 32.169C26.9 32.349 26.96 32.349 27.02 32.229C27.14 31.869 26.42 29.889 24.98 26.589L24.92 26.469V26.289L24.98 26.229C25.04 26.109 25.22 26.109 25.28 26.169L25.64 26.949L26.84 29.649C27.38 30.729 27.5 31.149 27.62 31.809ZM25.64 31.329C25.76 31.449 25.64 31.029 25.28 30.369C24.98 29.829 24.38 28.929 24.32 28.869C24.2 28.869 24.44 29.469 24.62 29.829C24.74 30.249 25.46 31.269 25.64 31.329Z" fill="black"/>
</svg>
