<svg width="60" height="252" viewBox="0 0 60 252" fill="none" xmlns="http://www.w3.org/2000/svg">
<path d="M12 0C16.7384 0 20.625 0.617493 23.6598 1.85612C26.6412 3.09476 28.9572 5.57022 30.6076 9.28432C32.2581 12.9966 33.4028 18.4799 34.0417 25.7306C34.6806 32.9813 35 42.6188 35 54.6429L35 197.223C35 209.248 34.6806 218.886 34.0417 226.137C33.4028 233.476 32.2581 239.002 30.6076 242.716C28.9572 246.429 26.6412 248.905 23.6598 250.143C20.625 251.381 16.7384 252 12 252L12 236.88C14.3959 236.88 16.3391 236.659 17.8299 236.217C19.2673 235.863 20.3854 234.581 21.1841 232.371C21.9293 230.16 22.4352 226.358 22.7014 220.964C22.9676 215.57 23.1007 207.834 23.1007 197.754L23.1007 54.1124C23.1007 44.0331 22.9676 36.297 22.7014 30.9025C22.4352 25.5097 21.9293 21.7069 21.1841 19.4958C20.3854 17.2865 19.2673 15.9592 17.8299 15.5173C16.3391 15.1642 14.3959 14.9867 12 14.9867L12 0Z" fill="#6BD2F9"/>
<g clip-path="url(#clip0_9_101)">
<mask id="path-2-outside-1_9_101" maskUnits="userSpaceOnUse" x="0" y="159" width="60" height="57" fill="black">
<rect fill="white" y="159" width="60" height="57"/>
<path d="M60 211L0 211L0 164L60 164L60 211Z"/>
</mask>
<path d="M60 211L0 211L0 164L60 164L60 211Z" fill="white"/>
<path d="M58.6141 175.587C58.9402 177.219 59.1033 178.987 59.1033 180.891C59.1033 183.61 58.7772 186.466 58.125 189.458C57.4185 192.45 56.3315 195.306 54.8641 198.026C53.3424 200.8 51.4131 203.303 49.0761 205.533C46.7391 207.763 43.8858 209.477 40.5163 210.674C40.0816 210.891 39.5924 211 39.0489 211C38.5598 211 38.0978 210.837 37.6631 210.51C37.2283 210.184 37.0109 209.504 37.0109 208.47V203.983C38.3152 203.167 39.5924 202.16 40.8424 200.964C42.0381 199.767 43.125 198.434 44.1033 196.965C45.0271 195.497 45.7881 193.892 46.3859 192.151C46.9294 190.465 47.2011 188.724 47.2011 186.929C47.0924 187.038 46.9565 187.092 46.7935 187.092C46.5761 187.092 46.3859 187.092 46.2228 187.092C44.4838 187.092 42.8804 186.793 41.4131 186.194C39.9457 185.596 38.6957 184.78 37.6631 183.747C36.6304 182.767 35.8424 181.571 35.2989 180.156C34.7011 178.742 34.4022 177.219 34.4022 175.587C34.4022 174.009 34.7011 172.541 35.2989 171.181C35.8424 169.875 36.6304 168.705 37.6631 167.672C38.6957 166.638 39.9457 165.822 41.4131 165.224C42.8804 164.68 44.4838 164.408 46.2228 164.408C48.0163 164.408 49.6196 164.68 51.0326 165.224C52.4457 165.822 53.6685 166.638 54.7011 167.672C55.6794 168.705 56.4946 169.875 57.1467 171.181C57.7989 172.541 58.2881 174.009 58.6141 175.587ZM24.5381 175.587C24.8641 177.219 25.0272 178.987 25.0272 180.891C25.0272 183.61 24.7011 186.466 24.0489 189.458C23.3424 192.45 22.2554 195.306 20.7881 198.026C19.2663 200.8 17.337 203.303 15 205.533C12.663 207.763 9.83701 209.477 6.52175 210.674C6.30432 210.782 6.08701 210.864 5.86958 210.918C5.59788 210.973 5.29893 211 4.97284 211C4.48371 211 4.04897 210.837 3.66849 210.51C3.23375 210.184 3.01632 209.504 3.01632 208.47V203.983C4.32067 203.167 5.57062 202.16 6.76632 200.964C7.96201 199.767 9.04893 198.434 10.0272 196.965C10.9511 195.497 11.712 193.892 12.3098 192.151C12.8533 190.465 13.125 188.724 13.125 186.929C13.0164 187.038 12.8804 187.092 12.7174 187.092C12.5 187.092 12.3098 187.092 12.1468 187.092C10.4077 187.092 8.80436 186.793 7.33697 186.194C5.86958 185.596 4.61962 184.78 3.58697 183.747C2.55432 182.767 1.76636 181.571 1.22284 180.156C0.625057 178.742 0.326099 177.219 0.326099 175.587C0.326099 174.009 0.625057 172.541 1.22284 171.181C1.76636 169.875 2.55432 168.705 3.58697 167.672C4.61962 166.638 5.86958 165.822 7.33697 165.224C8.80436 164.68 10.4077 164.408 12.1468 164.408C13.9402 164.408 15.5435 164.68 16.9565 165.224C18.3695 165.822 19.5924 166.638 20.625 167.672C21.6033 168.705 22.4185 169.875 23.0707 171.181C23.7228 172.541 24.212 174.009 24.5381 175.587Z" fill="#6BD2F9"/>
</g>
<path d="M60 206L0 206V216L60 216V206ZM0 169L60 169L60 159L0 159L0 169Z" fill="white" mask="url(#path-2-outside-1_9_101)"/>
<defs>
<clipPath id="clip0_9_101">
<path d="M60 211L0 211L0 164L60 164L60 211Z" fill="white"/>
</clipPath>
</defs>
</svg>
