<svg width="60" height="252" viewBox="0 0 60 252" fill="none" xmlns="http://www.w3.org/2000/svg">
<path d="M47 252C42.2616 252 38.375 251.383 35.3402 250.144C32.3588 248.905 30.0428 246.43 28.3924 242.716C26.7419 239.003 25.5972 233.52 24.9583 226.269C24.3194 219.019 24 209.381 24 197.357V54.777C24 42.7517 24.3194 33.1137 24.9583 25.8632C25.5972 18.5243 26.7419 12.9979 28.3924 9.28423C30.0428 5.57054 32.3588 3.09474 35.3402 1.85685C38.375 0.618949 42.2616 0 47 0V15.12C44.6041 15.12 42.6609 15.3411 41.1701 15.7832C39.7327 16.1369 38.6146 17.419 37.8159 19.6295C37.0707 21.84 36.5648 25.6421 36.2986 31.036C36.0324 36.4296 35.8993 44.1664 35.8993 54.2464V197.888C35.8993 207.967 36.0324 215.703 36.2986 221.098C36.5648 226.49 37.0707 230.293 37.8159 232.504C38.6146 234.713 39.7327 236.041 41.1701 236.483C42.6609 236.836 44.6041 237.013 47 237.013V252Z" fill="#6BD2F9"/>
<g clip-path="url(#clip0_9_100)">
<mask id="path-2-outside-1_9_100" maskUnits="userSpaceOnUse" x="0" y="29" width="60" height="57" fill="black">
<rect fill="white" y="29" width="60" height="57"/>
<path d="M0 34H60V81H0V34Z"/>
</mask>
<path d="M0 34H60V81H0V34Z" fill="white"/>
<path d="M1.38586 69.4132C1.05977 67.7812 0.896729 66.0133 0.896729 64.1094C0.896729 61.3895 1.22282 58.5336 1.87499 55.5417C2.58152 52.5497 3.66847 49.6938 5.13586 46.974C6.6576 44.1997 8.58694 41.6973 10.9239 39.467C13.2609 37.2367 16.1142 35.5232 19.4837 34.3264C19.9184 34.1088 20.4076 34 20.9511 34C21.4402 34 21.9022 34.1632 22.3369 34.4896C22.7717 34.816 22.9891 35.4959 22.9891 36.5295V41.0174C21.6848 41.8333 20.4076 42.8397 19.1576 44.0365C17.9619 45.2332 16.875 46.566 15.8967 48.0347C14.9729 49.5035 14.2119 51.1083 13.6141 52.849C13.0706 54.5353 12.7989 56.276 12.7989 58.0712C12.9076 57.9624 13.0435 57.908 13.2065 57.908C13.4239 57.908 13.6141 57.908 13.7772 57.908C15.5162 57.908 17.1196 58.2072 18.5869 58.8056C20.0543 59.4039 21.3043 60.2199 22.3369 61.2535C23.3696 62.2326 24.1576 63.4294 24.7011 64.8438C25.2989 66.2581 25.5978 67.7812 25.5978 69.4132C25.5978 70.9907 25.2989 72.4594 24.7011 73.8194C24.1576 75.125 23.3696 76.2945 22.3369 77.3281C21.3043 78.3617 20.0543 79.1777 18.5869 79.776C17.1196 80.3201 15.5162 80.592 13.7772 80.592C11.9837 80.592 10.3804 80.3201 8.96738 79.776C7.55434 79.1777 6.33152 78.3617 5.2989 77.3281C4.32064 76.2945 3.50542 75.125 2.85325 73.8194C2.20108 72.4594 1.71195 70.9907 1.38586 69.4132ZM35.4619 69.4132C35.1359 67.7812 34.9728 66.0133 34.9728 64.1094C34.9728 61.3895 35.2989 58.5336 35.9511 55.5417C36.6576 52.5497 37.7446 49.6938 39.2119 46.974C40.7337 44.1997 42.663 41.6973 45 39.467C47.337 37.2367 50.163 35.5232 53.4782 34.3264C53.6957 34.2176 53.913 34.136 54.1304 34.0816C54.4021 34.0272 54.7011 34 55.0272 34C55.5163 34 55.951 34.1632 56.3315 34.4896C56.7662 34.816 56.9837 35.4959 56.9837 36.5295V41.0174C55.6793 41.8333 54.4294 42.8397 53.2337 44.0365C52.038 45.2332 50.9511 46.566 49.9728 48.0347C49.0489 49.5035 48.288 51.1083 47.6902 52.849C47.1467 54.5353 46.875 56.276 46.875 58.0712C46.9836 57.9624 47.1196 57.908 47.2826 57.908C47.5 57.908 47.6902 57.908 47.8532 57.908C49.5923 57.908 51.1956 58.2072 52.663 58.8056C54.1304 59.4039 55.3804 60.2199 56.413 61.2535C57.4457 62.2326 58.2336 63.4294 58.7772 64.8438C59.3749 66.2581 59.6739 67.7812 59.6739 69.4132C59.6739 70.9907 59.3749 72.4594 58.7772 73.8194C58.2336 75.125 57.4457 76.2945 56.413 77.3281C55.3804 78.3617 54.1304 79.1777 52.663 79.776C51.1956 80.3201 49.5923 80.592 47.8532 80.592C46.0598 80.592 44.4565 80.3201 43.0435 79.776C41.6305 79.1777 40.4076 78.3617 39.375 77.3281C38.3967 76.2945 37.5815 75.125 36.9293 73.8194C36.2772 72.4594 35.788 70.9907 35.4619 69.4132Z" fill="#6BD2F9"/>
</g>
<path d="M0 39H60V29H0V39ZM60 76H0V86H60V76Z" fill="white" mask="url(#path-2-outside-1_9_100)"/>
<defs>
<clipPath id="clip0_9_100">
<path d="M0 34H60V81H0V34Z" fill="white"/>
</clipPath>
</defs>
</svg>
