<svg width="1311" height="252" viewBox="0 0 1311 252" fill="none" xmlns="http://www.w3.org/2000/svg">
<path d="M1263 -3.02998e-06C1267.74 -3.02998e-06 1271.63 0.617492 1274.66 1.85613C1277.64 3.09476 1279.96 5.57022 1281.61 9.28431C1283.26 12.9966 1284.4 18.4799 1285.04 25.7306C1285.68 32.9813 1286 42.6188 1286 54.6429V197.223C1286 209.248 1285.68 218.886 1285.04 226.137C1284.4 233.476 1283.26 239.002 1281.61 242.716C1279.96 246.429 1277.64 248.905 1274.66 250.143C1271.63 251.381 1267.74 252 1263 252V236.88C1265.4 236.88 1267.34 236.659 1268.83 236.217C1270.27 235.863 1271.39 234.581 1272.18 232.371C1272.93 230.16 1273.44 226.358 1273.7 220.964C1273.97 215.57 1274.1 207.834 1274.1 197.754V54.1123C1274.1 44.0331 1273.97 36.297 1273.7 30.9025C1273.44 25.5097 1272.93 21.7069 1272.18 19.4958C1271.39 17.2866 1270.27 15.9592 1268.83 15.5173C1267.34 15.1642 1265.4 14.9867 1263 14.9867V-3.02998e-06Z" fill="#6BD2F9"/>
<g clip-path="url(#clip0_106_19)">
<mask id="path-2-outside-1_106_19" maskUnits="userSpaceOnUse" x="1251" y="159" width="60" height="57" fill="black">
<rect fill="white" x="1251" y="159" width="60" height="57"/>
<path d="M1311 211L1251 211V164L1311 164V211Z"/>
</mask>
<path d="M1311 211L1251 211V164L1311 164V211Z" fill="white"/>
<path d="M1309.61 175.587C1309.94 177.219 1310.1 178.987 1310.1 180.891C1310.1 183.61 1309.78 186.466 1309.13 189.458C1308.42 192.45 1307.33 195.306 1305.86 198.026C1304.34 200.8 1302.41 203.303 1300.08 205.533C1297.74 207.763 1294.89 209.477 1291.52 210.674C1291.08 210.891 1290.59 211 1290.05 211C1289.56 211 1289.1 210.837 1288.66 210.51C1288.23 210.184 1288.01 209.504 1288.01 208.47V203.983C1289.32 203.167 1290.59 202.16 1291.84 200.964C1293.04 199.767 1294.13 198.434 1295.1 196.965C1296.03 195.497 1296.79 193.892 1297.39 192.151C1297.93 190.465 1298.2 188.724 1298.2 186.929C1298.09 187.038 1297.96 187.092 1297.79 187.092C1297.58 187.092 1297.39 187.092 1297.22 187.092C1295.48 187.092 1293.88 186.793 1292.41 186.194C1290.95 185.596 1289.7 184.78 1288.66 183.747C1287.63 182.767 1286.84 181.571 1286.3 180.156C1285.7 178.742 1285.4 177.219 1285.4 175.587C1285.4 174.009 1285.7 172.541 1286.3 171.181C1286.84 169.875 1287.63 168.705 1288.66 167.672C1289.7 166.638 1290.95 165.822 1292.41 165.224C1293.88 164.68 1295.48 164.408 1297.22 164.408C1299.02 164.408 1300.62 164.68 1302.03 165.224C1303.45 165.822 1304.67 166.638 1305.7 167.672C1306.68 168.705 1307.49 169.875 1308.15 171.181C1308.8 172.541 1309.29 174.009 1309.61 175.587ZM1275.54 175.587C1275.86 177.219 1276.03 178.987 1276.03 180.891C1276.03 183.61 1275.7 186.466 1275.05 189.458C1274.34 192.45 1273.26 195.306 1271.79 198.026C1270.27 200.8 1268.34 203.303 1266 205.533C1263.66 207.763 1260.84 209.477 1257.52 210.674C1257.3 210.782 1257.09 210.864 1256.87 210.918C1256.6 210.973 1256.3 211 1255.97 211C1255.48 211 1255.05 210.837 1254.67 210.51C1254.23 210.184 1254.02 209.504 1254.02 208.47V203.983C1255.32 203.167 1256.57 202.16 1257.77 200.964C1258.96 199.767 1260.05 198.434 1261.03 196.965C1261.95 195.497 1262.71 193.892 1263.31 192.151C1263.85 190.465 1264.13 188.724 1264.13 186.929C1264.02 187.038 1263.88 187.092 1263.72 187.092C1263.5 187.092 1263.31 187.092 1263.15 187.092C1261.41 187.092 1259.8 186.793 1258.34 186.194C1256.87 185.596 1255.62 184.78 1254.59 183.747C1253.55 182.767 1252.77 181.571 1252.22 180.156C1251.63 178.742 1251.33 177.219 1251.33 175.587C1251.33 174.009 1251.63 172.541 1252.22 171.181C1252.77 169.875 1253.55 168.705 1254.59 167.672C1255.62 166.638 1256.87 165.822 1258.34 165.224C1259.8 164.68 1261.41 164.408 1263.15 164.408C1264.94 164.408 1266.54 164.68 1267.96 165.224C1269.37 165.822 1270.59 166.638 1271.63 167.672C1272.6 168.705 1273.42 169.875 1274.07 171.181C1274.72 172.541 1275.21 174.009 1275.54 175.587Z" fill="#6BD2F9"/>
</g>
<path d="M1311 206L1251 206V216L1311 216V206ZM1251 169L1311 169V159L1251 159V169Z" fill="white" mask="url(#path-2-outside-1_106_19)"/>
<path d="M47 252C42.2616 252 38.375 251.383 35.3402 250.144C32.3588 248.905 30.0428 246.43 28.3924 242.716C26.7419 239.003 25.5972 233.52 24.9583 226.269C24.3194 219.019 24 209.381 24 197.357V54.777C24 42.7517 24.3194 33.1137 24.9583 25.8632C25.5972 18.5243 26.7419 12.9979 28.3924 9.28423C30.0428 5.57054 32.3588 3.09474 35.3402 1.85685C38.375 0.618949 42.2616 0 47 0V15.12C44.6041 15.12 42.6609 15.3411 41.1701 15.7832C39.7327 16.1369 38.6146 17.419 37.8159 19.6295C37.0707 21.84 36.5648 25.6421 36.2986 31.036C36.0324 36.4296 35.8993 44.1664 35.8993 54.2464V197.888C35.8993 207.967 36.0324 215.703 36.2986 221.098C36.5648 226.49 37.0707 230.293 37.8159 232.504C38.6146 234.713 39.7327 236.041 41.1701 236.483C42.6609 236.836 44.6041 237.013 47 237.013V252Z" fill="#6BD2F9"/>
<g clip-path="url(#clip1_106_19)">
<mask id="path-6-outside-2_106_19" maskUnits="userSpaceOnUse" x="0" y="29" width="60" height="57" fill="black">
<rect fill="white" y="29" width="60" height="57"/>
<path d="M0 34H60V81H0V34Z"/>
</mask>
<path d="M0 34H60V81H0V34Z" fill="white"/>
<path d="M1.38586 69.4132C1.05977 67.7813 0.896729 66.0133 0.896729 64.1094C0.896729 61.3895 1.22282 58.5336 1.87499 55.5417C2.58152 52.5497 3.66847 49.6938 5.13586 46.974C6.6576 44.1997 8.58694 41.6973 10.9239 39.467C13.2609 37.2367 16.1142 35.5232 19.4837 34.3264C19.9184 34.1088 20.4076 34 20.9511 34C21.4402 34 21.9022 34.1632 22.3369 34.4896C22.7717 34.816 22.9891 35.4959 22.9891 36.5295V41.0174C21.6848 41.8333 20.4076 42.8397 19.1576 44.0365C17.9619 45.2332 16.875 46.566 15.8967 48.0347C14.9729 49.5035 14.2119 51.1083 13.6141 52.849C13.0706 54.5353 12.7989 56.276 12.7989 58.0712C12.9076 57.9624 13.0435 57.908 13.2065 57.908C13.4239 57.908 13.6141 57.908 13.7772 57.908C15.5162 57.908 17.1196 58.2072 18.5869 58.8056C20.0543 59.4039 21.3043 60.2199 22.3369 61.2535C23.3696 62.2326 24.1576 63.4294 24.7011 64.8438C25.2989 66.2581 25.5978 67.7813 25.5978 69.4132C25.5978 70.9907 25.2989 72.4594 24.7011 73.8194C24.1576 75.125 23.3696 76.2945 22.3369 77.3281C21.3043 78.3617 20.0543 79.1777 18.5869 79.776C17.1196 80.3201 15.5162 80.592 13.7772 80.592C11.9837 80.592 10.3804 80.3201 8.96738 79.776C7.55434 79.1777 6.33152 78.3617 5.2989 77.3281C4.32064 76.2945 3.50542 75.125 2.85325 73.8194C2.20108 72.4594 1.71195 70.9907 1.38586 69.4132ZM35.4619 69.4132C35.1359 67.7813 34.9728 66.0133 34.9728 64.1094C34.9728 61.3895 35.2989 58.5336 35.9511 55.5417C36.6576 52.5497 37.7446 49.6938 39.2119 46.974C40.7337 44.1997 42.663 41.6973 45 39.467C47.337 37.2367 50.163 35.5232 53.4782 34.3264C53.6957 34.2176 53.913 34.136 54.1304 34.0816C54.4021 34.0272 54.7011 34 55.0272 34C55.5163 34 55.951 34.1632 56.3315 34.4896C56.7662 34.816 56.9837 35.4959 56.9837 36.5295V41.0174C55.6793 41.8333 54.4294 42.8397 53.2337 44.0365C52.038 45.2332 50.9511 46.566 49.9728 48.0347C49.0489 49.5035 48.288 51.1083 47.6902 52.849C47.1467 54.5353 46.875 56.276 46.875 58.0712C46.9836 57.9624 47.1196 57.908 47.2826 57.908C47.5 57.908 47.6902 57.908 47.8532 57.908C49.5923 57.908 51.1956 58.2072 52.663 58.8056C54.1304 59.4039 55.3804 60.2199 56.413 61.2535C57.4457 62.2326 58.2336 63.4294 58.7772 64.8438C59.3749 66.2581 59.6739 67.7813 59.6739 69.4132C59.6739 70.9907 59.3749 72.4594 58.7772 73.8194C58.2336 75.125 57.4457 76.2945 56.413 77.3281C55.3804 78.3617 54.1304 79.1777 52.663 79.776C51.1956 80.3201 49.5923 80.592 47.8532 80.592C46.0598 80.592 44.4565 80.3201 43.0435 79.776C41.6305 79.1777 40.4076 78.3617 39.375 77.3281C38.3967 76.2945 37.5815 75.125 36.9293 73.8194C36.2772 72.4594 35.788 70.9907 35.4619 69.4132Z" fill="#6BD2F9"/>
</g>
<path d="M0 39H60V29H0V39ZM60 76H0V86H60V76Z" fill="white" mask="url(#path-6-outside-2_106_19)"/>
<defs>
<clipPath id="clip0_106_19">
<path d="M1311 211L1251 211V164L1311 164V211Z" fill="white"/>
</clipPath>
<clipPath id="clip1_106_19">
<path d="M0 34H60V81H0V34Z" fill="white"/>
</clipPath>
</defs>
</svg>
